Coordinates
version=1
nRows=14
nColumns=24
inDegrees=yes

Units are S.I. units (second, meters, Newtons, ...)
Angles are in degrees.

endheader
time	pelvis_tilt	pelvis_list	pelvis_rotation	pelvis_tx	pelvis_ty	pelvis_tz	hip_flexion_r	hip_adduction_r	hip_rotation_r	knee_angle_r	ankle_angle_r	subtalar_angle_r	mtp_angle_r	hip_flexion_l	hip_adduction_l	hip_rotation_l	knee_angle_l	ankle_angle_l	subtalar_angle_l	mtp_angle_l	lumbar_extension	lumbar_bending	lumbar_rotation
      5.47500000	     13.17195044	      1.92824096	     12.75848171	      1.58868106	      0.91684218	     -0.32480581	      6.69114932	     -2.35284359	    -10.42227086	     -1.70551321	     13.31230242	     -0.91959228	      0.00000000	    -31.41085462	     -1.78321764	      9.88032071	    -11.90061307	     22.14661707	     12.18325134	      0.00000000	    -28.90928410	      2.17484173	    -14.57777726
      5.48000000	     13.39861509	      1.48799587	     12.83470584	      1.59625605	      0.91650820	     -0.32458735	      6.57226716	     -1.74855453	    -10.04256657	     -2.27936804	     13.19988512	     -1.35534394	      0.00000000	    -31.62948961	     -2.41820654	      9.28860719	    -12.75160293	     21.94462976	     13.01786032	      0.00000000	    -29.02316971	      2.73907809	    -14.36548697
      5.48500000	     13.44412353	      1.04711399	     13.06413996	      1.60384606	      0.91610986	     -0.32451635	      6.63320573	     -1.20341357	     -9.85148711	     -2.93944034	     13.11092982	     -1.68913452	      0.00000000	    -31.57477138	     -3.09058626	      8.90405346	    -13.73296131	     21.73113429	     13.87571039	      0.00000000	    -28.91899910	      3.32349692	    -14.33352372
      5.49000000	     13.61797014	      0.53652029	     13.12879765	      1.61154993	      0.91581153	     -0.32420583	      6.59290103	     -0.52262839	     -9.44993339	     -3.66029118	     12.99738318	     -2.17324571	      0.00000000	    -31.66435263	     -3.78263323	      8.26276341	    -14.70448307	     21.42444744	     14.74913440	      0.00000000	    -28.94143433	      3.92927307	    -14.10587158
      5.49500000	     13.66378944	      0.02993823	     13.33962386	      1.61925337	      0.91548332	     -0.32403519	      6.67283661	      0.10663902	     -9.26737947	     -4.44049877	     12.92402184	     -2.51844208	      0.00000000	    -31.53694325	     -4.51726870	      7.82920468	    -15.79722005	     21.10100822	     15.63312650	      0.00000000	    -28.80868988	      4.55840141	    -14.02045211
      5.50000000	     13.74154221	     -0.51622114	     13.48314018	      1.62705564	      0.91520300	     -0.32373452	      6.72822201	      0.80334747	     -8.99304293	     -5.25706307	     12.83427393	     -2.93656388	      0.00000000	    -31.42684577	     -5.27097329	      7.28470369	    -16.91716314	     20.68800889	     16.51434735	      0.00000000	    -28.69403110	      5.19608513	    -13.85703124
      5.50500000	     13.82448270	     -1.08527334	     13.59604119	      1.63488677	      0.91495197	     -0.32334566	      6.78354714	      1.53739244	     -8.69821187	     -6.10656940	     12.74875685	     -3.36708527	      0.00000000	    -31.28562682	     -6.03652677	      6.71515387	    -18.09793427	     20.21939331	     17.38061435	      0.00000000	    -28.58063195	      5.84296842	    -13.66242405
      5.51000000	     13.90382383	     -1.66676969	     13.67740325	      1.64274030	      0.91472233	     -0.32289667	      6.84044773	      2.29330285	     -8.39776604	     -6.97342006	     12.66596309	     -3.80453257	      0.00000000	    -31.10486443	     -6.79771207	      6.13997316	    -19.34282741	     19.69016478	     18.19928860	      0.00000000	    -28.46291278	      6.47830601	    -13.45190006
      5.51500000	     13.95227312	     -2.24930100	     13.81326634	      1.65057566	      0.91451677	     -0.32249767	      6.92297458	      3.03466838	     -8.18671948	     -7.86444287	     12.60512664	     -4.12916746	      0.00000000	    -30.83575146	     -7.58095044	      5.68481106	    -20.65421856	     19.12594096	     19.00990872	      0.00000000	    -28.30553610	      7.13599868	    -13.27661408
      5.52000000	     13.99172220	     -2.84437967	     13.92658639	      1.65846830	      0.91433955	     -0.32202294	      6.99865951	      3.79933320	     -7.97807356	     -8.73685269	     12.54546190	     -4.48647777	      0.00000000	    -30.51996632	     -8.36873117	      5.20574897	    -22.02184164	     18.47345806	     19.76157254	      0.00000000	    -28.13085398	      7.78252243	    -13.09216840
      5.52500000	     14.01634371	     -3.43653104	     14.01294368	      1.66635942	      0.91417800	     -0.32146903	      7.07766555	      4.56754440	     -7.77002129	     -9.59804721	     12.50061441	     -4.85846205	      0.00000000	    -30.14869796	     -9.14079365	      4.72905477	    -23.44972743	     17.76110640	     20.44080757	      0.00000000	    -27.94503904	      8.40226681	    -12.90112858
      5.53000000	     14.02925513	     -4.02199256	     14.12087765	      1.67425050	      0.91406492	     -0.32096258	      7.14739411	      5.31975109	     -7.62406930	    -10.44030636	     12.47459340	     -5.12615320	      0.00000000	    -29.72157895	     -9.90910579	      4.35908310	    -24.92001522	     16.97636789	     21.06607513	      0.00000000	    -27.74063828	      9.02832963	    -12.71749128
      5.53500000	     14.02796576	     -4.60182755	     14.22877401	      1.68212871	      0.91397564	     -0.32043987	      7.20872128	      6.06603179	     -7.50694968	    -11.24425211	     12.47267351	     -5.38914338	      0.00000000	    -29.23067739	    -10.66766334	      4.02515570	    -26.45010789	     16.14354421	     21.59831233	      0.00000000	    -27.52280808	      9.63920894	    -12.55130504
      5.54000000	     14.01119467	     -5.16696059	     14.33757990	      1.68997682	      0.91391531	     -0.31991059	      7.26302047	      6.79349511	     -7.42505273	    -12.01330397	     12.49949756	     -5.61829173	      0.00000000	    -28.67675761	    -11.40536869	      3.75168014	    -28.02880670	     15.26685138	     22.03273816	      0.00000000	    -27.29249575	     10.23097180	    -12.39964605
